<svg width="1800" height="1240" viewBox="0 0 1800 1240" fill="none" xmlns="http://www.w3.org/2000/svg">
  <defs>
    <filter id="shadow" x="-20%" y="-20%" width="140%" height="140%">
      <feDropShadow dx="0" dy="6" stdDeviation="8" flood-color="#9EB2A4" flood-opacity="0.18"/>
    </filter>
  </defs>
  <rect width="1800" height="1240" fill="#EEF4F0"/>
  <rect x="36" y="36" width="1728" height="1168" rx="28" fill="#FCFFFD" stroke="#CAD7CF" stroke-width="2"/>

  <rect x="86" y="76" width="1628" height="82" rx="22" fill="#1F5B47"/>
  <text x="122" y="126" fill="#FFFFFF" font-family="Arial, Helvetica, sans-serif" font-size="34" font-weight="700">TO-BE PROCESS FLOW</text>
  <text x="474" y="126" fill="#D1E5DA" font-family="Arial, Helvetica, sans-serif" font-size="18">Proposed Library Management System workflow with automated validation and reporting</text>

  <rect x="86" y="184" width="1180" height="76" rx="18" fill="#F0F7F3" stroke="#D2E4D8"/>
  <text x="118" y="214" fill="#2A6A53" font-family="Arial, Helvetica, sans-serif" font-size="16" font-weight="700">Future-State Goal</text>
  <text x="118" y="239" fill="#5F7067" font-family="Arial, Helvetica, sans-serif" font-size="18">Digitize search, circulation, reservations, fines, and reporting to improve service speed, data accuracy, and operational visibility.</text>

  <rect x="1260" y="184" width="454" height="92" rx="18" fill="#F3FAF6" stroke="#D2E4D8"/>
  <text x="1292" y="216" fill="#2A6A53" font-family="Arial, Helvetica, sans-serif" font-size="16" font-weight="700">Expected Outcome</text>
  <text x="1292" y="242" fill="#5F7067" font-family="Arial, Helvetica, sans-serif" font-size="17">Less manual effort, faster turnaround,</text>
  <text x="1292" y="264" fill="#5F7067" font-family="Arial, Helvetica, sans-serif" font-size="17">and stronger control.</text>

  <rect x="86" y="292" width="1628" height="196" rx="24" fill="#F4FBF6" stroke="#D0E5D7"/>
  <rect x="86" y="512" width="1628" height="214" rx="24" fill="#F3F7FF" stroke="#D1DCEB"/>
  <rect x="86" y="750" width="1628" height="214" rx="24" fill="#FFF9EE" stroke="#E7D5A8"/>
  <rect x="86" y="988" width="1628" height="156" rx="24" fill="#F4FBF7" stroke="#D2E2D8"/>

  <rect x="108" y="314" width="192" height="42" rx="14" fill="#DDF0E3"/>
  <text x="134" y="341" fill="#1E5B46" font-family="Arial, Helvetica, sans-serif" font-size="20" font-weight="700">Member Journey</text>

  <rect x="108" y="534" width="214" height="42" rx="14" fill="#E5EEFC"/>
  <text x="134" y="561" fill="#355A87" font-family="Arial, Helvetica, sans-serif" font-size="20" font-weight="700">Staff Interaction</text>

  <rect x="108" y="772" width="210" height="42" rx="14" fill="#FFF0D6"/>
  <text x="134" y="799" fill="#876102" font-family="Arial, Helvetica, sans-serif" font-size="20" font-weight="700">System Actions</text>

  <rect x="108" y="1010" width="182" height="42" rx="14" fill="#E4F6EB"/>
  <text x="134" y="1037" fill="#2F6B55" font-family="Arial, Helvetica, sans-serif" font-size="20" font-weight="700">Outcomes</text>

  <rect x="100" y="372" width="250" height="94" rx="18" fill="#FFFFFF" stroke="#91C6A2" stroke-width="2" filter="url(#shadow)"/>
  <circle cx="130" cy="404" r="15" fill="#DFF2E4"/><text x="124" y="410" fill="#1E5B46" font-family="Arial, Helvetica, sans-serif" font-size="14" font-weight="700">1</text>
  <text x="156" y="404" fill="#233140" font-family="Arial, Helvetica, sans-serif" font-size="20" font-weight="700">Search catalog via</text>
  <text x="156" y="432" fill="#5D6A77" font-family="Arial, Helvetica, sans-serif" font-size="17">portal or desk assistance</text>

  <polygon points="500,380 630,420 500,460 370,420" fill="#FFFFFF" stroke="#91C6A2" stroke-width="2" filter="url(#shadow)"/>
  <text x="436" y="414" fill="#233140" font-family="Arial, Helvetica, sans-serif" font-size="17" font-weight="700">Book available?</text>
  <text x="646" y="392" fill="#1E5B46" font-family="Arial, Helvetica, sans-serif" font-size="16" font-weight="700">Yes</text>
  <text x="420" y="486" fill="#876102" font-family="Arial, Helvetica, sans-serif" font-size="16" font-weight="700">No: reserve</text>

  <rect x="700" y="372" width="250" height="94" rx="18" fill="#FFFFFF" stroke="#91C6A2" stroke-width="2" filter="url(#shadow)"/>
  <circle cx="730" cy="404" r="15" fill="#DFF2E4"/><text x="724" y="410" fill="#1E5B46" font-family="Arial, Helvetica, sans-serif" font-size="14" font-weight="700">2</text>
  <text x="756" y="404" fill="#233140" font-family="Arial, Helvetica, sans-serif" font-size="20" font-weight="700">Request issue or</text>
  <text x="756" y="432" fill="#5D6A77" font-family="Arial, Helvetica, sans-serif" font-size="17">place a reservation</text>

  <rect x="1020" y="372" width="250" height="94" rx="18" fill="#FFFFFF" stroke="#91C6A2" stroke-width="2" filter="url(#shadow)"/>
  <circle cx="1050" cy="404" r="15" fill="#DFF2E4"/><text x="1044" y="410" fill="#1E5B46" font-family="Arial, Helvetica, sans-serif" font-size="14" font-weight="700">3</text>
  <text x="1076" y="404" fill="#233140" font-family="Arial, Helvetica, sans-serif" font-size="20" font-weight="700">Receive reminders</text>
  <text x="1076" y="432" fill="#5D6A77" font-family="Arial, Helvetica, sans-serif" font-size="17">and due-date alerts</text>

  <rect x="1340" y="372" width="250" height="94" rx="18" fill="#FFFFFF" stroke="#91C6A2" stroke-width="2" filter="url(#shadow)"/>
  <circle cx="1370" cy="404" r="15" fill="#DFF2E4"/><text x="1364" y="410" fill="#1E5B46" font-family="Arial, Helvetica, sans-serif" font-size="14" font-weight="700">4</text>
  <text x="1396" y="404" fill="#233140" font-family="Arial, Helvetica, sans-serif" font-size="20" font-weight="700">Return or renew</text>
  <text x="1396" y="432" fill="#5D6A77" font-family="Arial, Helvetica, sans-serif" font-size="17">book efficiently</text>

  <rect x="180" y="598" width="270" height="98" rx="18" fill="#FFFFFF" stroke="#9CB5E0" stroke-width="2" filter="url(#shadow)"/>
  <circle cx="210" cy="630" r="15" fill="#E4ECFB"/><text x="204" y="636" fill="#355A87" font-family="Arial, Helvetica, sans-serif" font-size="14" font-weight="700">5</text>
  <text x="236" y="629" fill="#233140" font-family="Arial, Helvetica, sans-serif" font-size="20" font-weight="700">Scan member ID and</text>
  <text x="236" y="657" fill="#5D6A77" font-family="Arial, Helvetica, sans-serif" font-size="17">book barcode at desk</text>

  <rect x="520" y="598" width="270" height="98" rx="18" fill="#FFFFFF" stroke="#9CB5E0" stroke-width="2" filter="url(#shadow)"/>
  <circle cx="550" cy="630" r="15" fill="#E4ECFB"/><text x="544" y="636" fill="#355A87" font-family="Arial, Helvetica, sans-serif" font-size="14" font-weight="700">6</text>
  <text x="576" y="629" fill="#233140" font-family="Arial, Helvetica, sans-serif" font-size="20" font-weight="700">Complete issue,</text>
  <text x="576" y="657" fill="#5D6A77" font-family="Arial, Helvetica, sans-serif" font-size="17">return, or renewal</text>

  <rect x="860" y="598" width="270" height="98" rx="18" fill="#FFFFFF" stroke="#9CB5E0" stroke-width="2" filter="url(#shadow)"/>
  <circle cx="890" cy="630" r="15" fill="#E4ECFB"/><text x="884" y="636" fill="#355A87" font-family="Arial, Helvetica, sans-serif" font-size="14" font-weight="700">7</text>
  <text x="916" y="629" fill="#233140" font-family="Arial, Helvetica, sans-serif" font-size="20" font-weight="700">Collect fine only if</text>
  <text x="916" y="657" fill="#5D6A77" font-family="Arial, Helvetica, sans-serif" font-size="17">system flags overdue</text>

  <rect x="1200" y="598" width="270" height="98" rx="18" fill="#FFFFFF" stroke="#9CB5E0" stroke-width="2" filter="url(#shadow)"/>
  <circle cx="1230" cy="630" r="15" fill="#E4ECFB"/><text x="1224" y="636" fill="#355A87" font-family="Arial, Helvetica, sans-serif" font-size="14" font-weight="700">8</text>
  <text x="1256" y="629" fill="#233140" font-family="Arial, Helvetica, sans-serif" font-size="20" font-weight="700">Review dashboards</text>
  <text x="1256" y="657" fill="#5D6A77" font-family="Arial, Helvetica, sans-serif" font-size="17">and operational reports</text>

  <rect x="1515" y="590" width="170" height="114" rx="18" fill="#F7FBFF" stroke="#D1DCEB" stroke-dasharray="6 6"/>
  <text x="1552" y="635" fill="#355A87" font-family="Arial, Helvetica, sans-serif" font-size="17" font-weight="700">Self-</text>
  <text x="1540" y="663" fill="#355A87" font-family="Arial, Helvetica, sans-serif" font-size="17" font-weight="700">service ready</text>

  <rect x="140" y="826" width="300" height="112" rx="18" fill="#FFFFFF" stroke="#D8B76E" stroke-width="2" filter="url(#shadow)"/>
  <circle cx="176" cy="870" r="15" fill="#FBE7BE"/><text x="170" y="876" fill="#876102" font-family="Arial, Helvetica, sans-serif" font-size="14" font-weight="700">9</text>
  <text x="204" y="866" fill="#3D3425" font-family="Arial, Helvetica, sans-serif" font-size="20" font-weight="700">Validate member</text>
  <text x="204" y="895" fill="#6B5E44" font-family="Arial, Helvetica, sans-serif" font-size="17">status and issue limits</text>

  <rect x="430" y="836" width="250" height="98" rx="18" fill="#FFFFFF" stroke="#D8B76E" stroke-width="2" filter="url(#shadow)"/>
  <circle cx="460" cy="868" r="15" fill="#FBE7BE"/><text x="454" y="874" fill="#876102" font-family="Arial, Helvetica, sans-serif" font-size="14" font-weight="700">10</text>
  <text x="486" y="867" fill="#3D3425" font-family="Arial, Helvetica, sans-serif" font-size="20" font-weight="700">Show real-time</text>
  <text x="486" y="895" fill="#6B5E44" font-family="Arial, Helvetica, sans-serif" font-size="17">availability and location</text>

  <rect x="720" y="836" width="250" height="98" rx="18" fill="#FFFFFF" stroke="#D8B76E" stroke-width="2" filter="url(#shadow)"/>
  <circle cx="750" cy="868" r="15" fill="#FBE7BE"/><text x="742" y="874" fill="#876102" font-family="Arial, Helvetica, sans-serif" font-size="14" font-weight="700">11</text>
  <text x="776" y="867" fill="#3D3425" font-family="Arial, Helvetica, sans-serif" font-size="20" font-weight="700">Generate due date</text>
  <text x="776" y="895" fill="#6B5E44" font-family="Arial, Helvetica, sans-serif" font-size="17">and confirmations</text>

  <rect x="1010" y="836" width="250" height="98" rx="18" fill="#FFFFFF" stroke="#D8B76E" stroke-width="2" filter="url(#shadow)"/>
  <circle cx="1040" cy="868" r="15" fill="#FBE7BE"/><text x="1032" y="874" fill="#876102" font-family="Arial, Helvetica, sans-serif" font-size="14" font-weight="700">12</text>
  <text x="1066" y="867" fill="#3D3425" font-family="Arial, Helvetica, sans-serif" font-size="20" font-weight="700">Calculate fines</text>
  <text x="1066" y="895" fill="#6B5E44" font-family="Arial, Helvetica, sans-serif" font-size="17">and send reminders</text>

  <rect x="1300" y="836" width="300" height="98" rx="18" fill="#FFFFFF" stroke="#D8B76E" stroke-width="2" filter="url(#shadow)"/>
  <circle cx="1330" cy="868" r="15" fill="#FBE7BE"/><text x="1322" y="874" fill="#876102" font-family="Arial, Helvetica, sans-serif" font-size="14" font-weight="700">13</text>
  <text x="1356" y="867" fill="#3D3425" font-family="Arial, Helvetica, sans-serif" font-size="20" font-weight="700">Update stock, queue,</text>
  <text x="1356" y="895" fill="#6B5E44" font-family="Arial, Helvetica, sans-serif" font-size="17">history, and audit trail</text>

  <rect x="170" y="1042" width="300" height="68" rx="16" fill="#FFFFFF" stroke="#95C7A4" stroke-width="2"/>
  <text x="222" y="1083" fill="#2F6B55" font-family="Arial, Helvetica, sans-serif" font-size="18" font-weight="700">Faster member service</text>

  <rect x="530" y="1028" width="300" height="68" rx="16" fill="#FFFFFF" stroke="#95C7A4" stroke-width="2"/>
  <text x="582" y="1069" fill="#2F6B55" font-family="Arial, Helvetica, sans-serif" font-size="18" font-weight="700">Controlled accuracy</text>

  <rect x="890" y="1028" width="300" height="68" rx="16" fill="#FFFFFF" stroke="#95C7A4" stroke-width="2"/>
  <text x="942" y="1069" fill="#2F6B55" font-family="Arial, Helvetica, sans-serif" font-size="18" font-weight="700">Live visibility</text>

  <rect x="1250" y="1028" width="370" height="86" rx="16" fill="#FFFFFF" stroke="#95C7A4" stroke-width="2"/>
  <text x="1312" y="1060" fill="#2F6B55" font-family="Arial, Helvetica, sans-serif" font-size="17" font-weight="700">Stronger reporting and</text>
  <text x="1334" y="1083" fill="#2F6B55" font-family="Arial, Helvetica, sans-serif" font-size="17" font-weight="700">audit control</text>

  <path d="M350 420H370" stroke="#74877B" stroke-width="4" stroke-linecap="round"/>
  <path d="M630 420H700" stroke="#74877B" stroke-width="4" stroke-linecap="round"/>
  <path d="M950 420H1020" stroke="#74877B" stroke-width="4" stroke-linecap="round"/>
  <path d="M1270 420H1340" stroke="#74877B" stroke-width="4" stroke-linecap="round"/>
  <path d="M500 460V598" stroke="#74877B" stroke-width="4" stroke-linecap="round"/>
  <path d="M315 466V598" stroke="#74877B" stroke-width="4" stroke-linecap="round"/>
  <path d="M655 466V598" stroke="#74877B" stroke-width="4" stroke-linecap="round"/>
  <path d="M1110 466V598" stroke="#74877B" stroke-width="4" stroke-linecap="round"/>
  <path d="M1465 466V598" stroke="#74877B" stroke-width="4" stroke-linecap="round"/>
  <path d="M290 696V826" stroke="#74877B" stroke-width="4" stroke-linecap="round"/>
  <path d="M555 696V836" stroke="#74877B" stroke-width="4" stroke-linecap="round"/>
  <path d="M845 696V836" stroke="#74877B" stroke-width="4" stroke-linecap="round"/>
  <path d="M1135 696V836" stroke="#74877B" stroke-width="4" stroke-linecap="round"/>
  <path d="M1450 696V836" stroke="#74877B" stroke-width="4" stroke-linecap="round"/>
  <path d="M290 938V1042" stroke="#74877B" stroke-width="4" stroke-linecap="round"/>
  <path d="M680 934V1028" stroke="#74877B" stroke-width="4" stroke-linecap="round"/>
  <path d="M1040 934V1028" stroke="#74877B" stroke-width="4" stroke-linecap="round"/>
  <path d="M1435 934V1028" stroke="#74877B" stroke-width="4" stroke-linecap="round"/>

  <polygon points="370,420 384,412 384,428" fill="#74877B"/>
  <polygon points="700,420 686,412 686,428" fill="#74877B"/>
  <polygon points="1020,420 1006,412 1006,428" fill="#74877B"/>
  <polygon points="1340,420 1326,412 1326,428" fill="#74877B"/>
  <polygon points="500,598 492,584 508,584" fill="#74877B"/>
  <polygon points="315,598 307,584 323,584" fill="#74877B"/>
  <polygon points="655,598 647,584 663,584" fill="#74877B"/>
  <polygon points="1110,598 1102,584 1118,584" fill="#74877B"/>
  <polygon points="1465,598 1457,584 1473,584" fill="#74877B"/>
  <polygon points="290,826 282,812 298,812" fill="#74877B"/>
  <polygon points="555,836 547,822 563,822" fill="#74877B"/>
  <polygon points="845,836 837,822 853,822" fill="#74877B"/>
  <polygon points="1135,836 1127,822 1143,822" fill="#74877B"/>
  <polygon points="1450,836 1442,822 1458,822" fill="#74877B"/>
  <polygon points="290,1042 282,1028 298,1028" fill="#74877B"/>
  <polygon points="680,1028 672,1014 688,1014" fill="#74877B"/>
  <polygon points="1040,1028 1032,1014 1048,1014" fill="#74877B"/>
  <polygon points="1435,1028 1427,1014 1443,1014" fill="#74877B"/>

  <rect x="86" y="1176" width="1628" height="32" rx="14" fill="#E8F1EB"/>
  <text x="118" y="1198" fill="#61736A" font-family="Arial, Helvetica, sans-serif" font-size="16">BA takeaway: The proposed process shifts the library from manual transaction handling to a system-led, policy-driven operating model with measurable service improvements.</text>
</svg>
